<svg id="Ebene_1" data-name="Ebene 1" xmlns="http://www.w3.org/2000/svg" viewBox="0 0 115.67 110.83"><defs><style>.cls-1{fill:#00b3b7;}.cls-2{fill:#213c54;}.cls-3{fill:#4656a2;}.cls-4{fill:#3f748a;}</style></defs><title>Zeichenfläche 10mdpi</title><path class="cls-1" d="M56.88,98a5.76,5.76,0,1,0-.6,11.5h0a5.76,5.76,0,1,0,.6-11.5Z"/><path class="cls-2" d="M94,78.68a5.71,5.71,0,0,0,1.72,7.92,6,6,0,0,0,2.89.94,5.7,5.7,0,0,0,5.15-2.65A5.78,5.78,0,0,0,102.19,77,5.94,5.94,0,0,0,94,78.68Z"/><path class="cls-2" d="M101.18,56.92a5.76,5.76,0,1,0,6.08-5.42A5.74,5.74,0,0,0,101.18,56.92Z"/><path class="cls-2" d="M101.41,37.57a6.31,6.31,0,0,0,3-.6,5.82,5.82,0,0,0,2.5-7.8,5.71,5.71,0,1,0-10.17,5.18A5.23,5.23,0,0,0,101.41,37.57Z"/><path class="cls-2" d="M81.3,17.31a6,6,0,0,0,2.89.94A5.7,5.7,0,1,0,79.84,9.4,5.53,5.53,0,0,0,81.3,17.31Z"/><path class="cls-2" d="M84.65,96.47A5.59,5.59,0,0,0,77,94a5.77,5.77,0,0,0,2.32,10.9,6.31,6.31,0,0,0,3-.6h0A5.93,5.93,0,0,0,84.65,96.47Z"/><path class="cls-3" d="M26.43,96.19a5.74,5.74,0,0,0,2.07,7.88h0a5.76,5.76,0,1,0-2.07-7.88Z"/><path class="cls-2" d="M8.74,50A5.78,5.78,0,0,0,3,55.66a5.7,5.7,0,0,0,2.82,5.06,6,6,0,0,0,2.93.82A5.71,5.71,0,0,0,14.6,55.9,5.94,5.94,0,0,0,8.74,50Z"/><path class="cls-2" d="M18.63,25.93a5.76,5.76,0,1,0,2.07,7.88A5.74,5.74,0,0,0,18.63,25.93Z"/><path class="cls-2" d="M36.9,17.49a5.71,5.71,0,1,0-5.6-9.94,5.82,5.82,0,0,0-2.24,7.88,6.31,6.31,0,0,0,2.15,2.15A5.23,5.23,0,0,0,36.9,17.49Z"/><path class="cls-2" d="M65,6.65a5.71,5.71,0,1,0-8.56,4.9,6,6,0,0,0,2.92.84A5.53,5.53,0,0,0,65,6.65Z"/><path class="cls-4" d="M10.21,83.71h0a6.31,6.31,0,0,0,2.15,2.15,5.77,5.77,0,0,0,8-7.8,5.59,5.59,0,0,0-7.77-2.17A5.93,5.93,0,0,0,10.21,83.71Z"/></svg>