<svg id="Ebene_1" data-name="Ebene 1" xmlns="http://www.w3.org/2000/svg" viewBox="0 0 100.5 81"><defs><style>.cls-1{fill:#1d1d1b;}.cls-1,.cls-2{stroke:#1d1d1b;stroke-miterlimit:10;stroke-width:0.1px;}.cls-2{fill:none;}</style></defs><title>Zeichenfläche 2 Kopie 21</title><path class="cls-1" d="M28.12,37.2h1.55l0,1a2.49,2.49,0,0,1,.7-.83,1.71,1.71,0,0,1,1.05-.32,1.57,1.57,0,0,1,1,.3,1.32,1.32,0,0,1,.47.91,2.55,2.55,0,0,1,.71-.88,1.71,1.71,0,0,1,1.07-.34,1.51,1.51,0,0,1,1.16.47A1.78,1.78,0,0,1,36.17,39l-.31,2.58h.77l-.08.72-.32.26h-1.7l.37-3.1a1.68,1.68,0,0,0-.11-1.09.76.76,0,0,0-.69-.32,1,1,0,0,0-.85.37,2.12,2.12,0,0,0-.37.9l-.38,3.23H31.25l.38-3.1a1.68,1.68,0,0,0-.11-1.09.76.76,0,0,0-.69-.32,1,1,0,0,0-.89.41,2.27,2.27,0,0,0-.35,1v0l-.37,3.11H28l.54-4.39H27.7l.08-.71Z"/><path class="cls-1" d="M39.57,40.29a3.7,3.7,0,0,1,.7-2.22,2.48,2.48,0,0,1,2.15-1,2.07,2.07,0,0,1,1.75.71,2.85,2.85,0,0,1,.54,1.78,3.26,3.26,0,0,1-.79,2.25,2.68,2.68,0,0,1-2.11.88,2.13,2.13,0,0,1-1.68-.65A2.58,2.58,0,0,1,39.57,40.29Zm1.33-.1a2.45,2.45,0,0,0,.22,1.12.84.84,0,0,0,.83.42,1.17,1.17,0,0,0,1.12-.63,3.11,3.11,0,0,0,.34-1.48q0-1.52-1.1-1.52Q40.9,38.09,40.9,40.19ZM41.25,35h3l-.11,1h-3Z"/><path class="cls-1" d="M47.71,37.49,48,37.2H50l-.66,5.35a5.21,5.21,0,0,1-.59,1.94,1.37,1.37,0,0,1-1.21.76,1.71,1.71,0,0,1-.6-.08,2.6,2.6,0,0,1-.5-.22l0-.85a1.17,1.17,0,0,0,1,0q.43-.25.59-1.54l.54-4.36h-1Zm1.12-1.4L49,34.67h1.24l-.14,1.42Z"/><path class="cls-1" d="M53,40.29a3.7,3.7,0,0,1,.7-2.22,2.48,2.48,0,0,1,2.15-1,2.07,2.07,0,0,1,1.75.71,2.84,2.84,0,0,1,.54,1.78,3.26,3.26,0,0,1-.79,2.25,2.68,2.68,0,0,1-2.11.88,2.14,2.14,0,0,1-1.67-.65A2.56,2.56,0,0,1,53,40.29Zm1.33-.1a2.45,2.45,0,0,0,.22,1.12.84.84,0,0,0,.83.42,1.17,1.17,0,0,0,1.12-.63,3.11,3.11,0,0,0,.34-1.48q0-1.52-1.1-1.52Q54.34,38.09,54.34,40.19Z"/><path class="cls-2" d="M28.47,37.08H30l0,1a2.49,2.49,0,0,1,.7-.83A1.71,1.71,0,0,1,31.8,37a1.57,1.57,0,0,1,1,.3,1.32,1.32,0,0,1,.47.91,2.55,2.55,0,0,1,.71-.88A1.71,1.71,0,0,1,35.05,37a1.51,1.51,0,0,1,1.16.47,1.78,1.78,0,0,1,.31,1.46l-.31,2.58H37l-.08.72-.32.26h-1.7l.37-3.1a1.68,1.68,0,0,0-.11-1.09.76.76,0,0,0-.69-.32,1,1,0,0,0-.85.37,2.12,2.12,0,0,0-.37.9l-.38,3.23H31.61l.38-3.1a1.68,1.68,0,0,0-.11-1.09.76.76,0,0,0-.69-.32,1,1,0,0,0-.89.41,2.27,2.27,0,0,0-.35,1v0l-.37,3.11H28.34l.54-4.39h-.83l.08-.71Z"/><path class="cls-2" d="M39.92,40.16a3.7,3.7,0,0,1,.7-2.22,2.48,2.48,0,0,1,2.15-1,2.07,2.07,0,0,1,1.75.71,2.85,2.85,0,0,1,.54,1.78,3.26,3.26,0,0,1-.79,2.25,2.68,2.68,0,0,1-2.11.88,2.13,2.13,0,0,1-1.68-.65A2.58,2.58,0,0,1,39.92,40.16Zm1.33-.1a2.45,2.45,0,0,0,.22,1.12.84.84,0,0,0,.83.42A1.17,1.17,0,0,0,43.41,41a3.11,3.11,0,0,0,.34-1.48q0-1.52-1.1-1.52Q41.25,38,41.25,40.07Zm.35-5.15h3l-.11,1h-3Z"/><path class="cls-2" d="M48.07,37.37l.32-.29h1.93l-.66,5.35a5.21,5.21,0,0,1-.59,1.94,1.37,1.37,0,0,1-1.21.76,1.71,1.71,0,0,1-.6-.08,2.6,2.6,0,0,1-.5-.22l0-.85a1.17,1.17,0,0,0,1,0q.43-.25.59-1.54L49,38.08H48ZM49.18,36l.14-1.42h1.24L50.42,36Z"/><path class="cls-2" d="M53.36,40.16a3.7,3.7,0,0,1,.7-2.22,2.48,2.48,0,0,1,2.15-1,2.07,2.07,0,0,1,1.75.71,2.84,2.84,0,0,1,.54,1.78,3.26,3.26,0,0,1-.79,2.25,2.68,2.68,0,0,1-2.11.88,2.14,2.14,0,0,1-1.67-.65A2.56,2.56,0,0,1,53.36,40.16Zm1.33-.1a2.45,2.45,0,0,0,.22,1.12.84.84,0,0,0,.83.42A1.17,1.17,0,0,0,56.86,41a3.11,3.11,0,0,0,.34-1.48q0-1.52-1.1-1.52Q54.7,38,54.7,40.07Z"/><path class="cls-2" d="M28.89,37h1.55l0,1a2.49,2.49,0,0,1,.7-.83,1.71,1.71,0,0,1,1.05-.32,1.57,1.57,0,0,1,1,.3,1.32,1.32,0,0,1,.47.91,2.55,2.55,0,0,1,.71-.88,1.71,1.71,0,0,1,1.07-.34,1.51,1.51,0,0,1,1.16.47,1.78,1.78,0,0,1,.31,1.46l-.31,2.58h.77l-.08.72-.32.26h-1.7l.37-3.1a1.68,1.68,0,0,0-.11-1.09.76.76,0,0,0-.69-.32,1,1,0,0,0-.85.37,2.12,2.12,0,0,0-.37.9l-.38,3.23H32l.38-3.1a1.68,1.68,0,0,0-.11-1.09.76.76,0,0,0-.69-.32,1,1,0,0,0-.89.41,2.27,2.27,0,0,0-.35,1v0L30,42.41H28.76L29.3,38h-.83l.08-.71Z"/><path class="cls-2" d="M40.34,40.1a3.7,3.7,0,0,1,.7-2.22,2.48,2.48,0,0,1,2.15-1,2.07,2.07,0,0,1,1.75.71,2.85,2.85,0,0,1,.54,1.78,3.26,3.26,0,0,1-.79,2.25,2.68,2.68,0,0,1-2.11.88,2.13,2.13,0,0,1-1.68-.65A2.58,2.58,0,0,1,40.34,40.1Zm1.33-.1a2.45,2.45,0,0,0,.22,1.12.84.84,0,0,0,.83.42,1.17,1.17,0,0,0,1.12-.63,3.11,3.11,0,0,0,.34-1.48q0-1.52-1.1-1.52Q41.67,37.91,41.67,40ZM42,34.86h3l-.11,1h-3Z"/><path class="cls-2" d="M48.48,37.31l.32-.29h1.93l-.66,5.35a5.21,5.21,0,0,1-.59,1.94,1.37,1.37,0,0,1-1.21.76,1.71,1.71,0,0,1-.6-.08,2.6,2.6,0,0,1-.5-.22l0-.85a1.17,1.17,0,0,0,1,0q.43-.25.59-1.54L49.39,38h-1Zm1.12-1.4.14-1.42H51l-.14,1.42Z"/><path class="cls-2" d="M53.78,40.1a3.7,3.7,0,0,1,.7-2.22,2.48,2.48,0,0,1,2.15-1,2.07,2.07,0,0,1,1.75.71,2.84,2.84,0,0,1,.54,1.78,3.26,3.26,0,0,1-.79,2.25,2.68,2.68,0,0,1-2.11.88,2.14,2.14,0,0,1-1.67-.65A2.56,2.56,0,0,1,53.78,40.1Zm1.33-.1a2.45,2.45,0,0,0,.22,1.12.84.84,0,0,0,.83.42,1.17,1.17,0,0,0,1.12-.63,3.11,3.11,0,0,0,.34-1.48q0-1.52-1.1-1.52Q55.11,37.91,55.11,40Z"/></svg>