<svg id="Ebene_1" data-name="Ebene 1" xmlns="http://www.w3.org/2000/svg" viewBox="0 0 188.13 76.37"><defs><style>.cls-1{isolation:isolate;}</style></defs><title>Zeichenfläche 1logo_mojo_final</title><path d="M.8,16.74H11.11v5.77q5.53-6.73,13.17-6.73a14.19,14.19,0,0,1,7,1.67,12.85,12.85,0,0,1,4.9,5.05,19.53,19.53,0,0,1,6-5.05,14.75,14.75,0,0,1,6.89-1.67A15.34,15.34,0,0,1,57,17.67a11.59,11.59,0,0,1,4.82,5.55Q63,25.93,63,32V59H51.79V34.85q0-6.29-1.15-8.12a5.3,5.3,0,0,0-4.78-2.39,7.62,7.62,0,0,0-4.42,1.43,7.94,7.94,0,0,0-3,4.2,30.19,30.19,0,0,0-.92,8.74V59H26.36V35.84q0-6.17-.6-8a5.08,5.08,0,0,0-1.85-2.67,5.86,5.86,0,0,0-3.4-.88,8.15,8.15,0,0,0-4.66,1.39,7.64,7.64,0,0,0-3,4q-.9,2.63-.9,8.72V59H.8Z"/><path d="M70.71,37.27a22.87,22.87,0,0,1,2.75-10.79,18.85,18.85,0,0,1,7.78-8,23.09,23.09,0,0,1,11.24-2.75q9.59,0,15.72,6.23a21.52,21.52,0,0,1,6.13,15.74,21.78,21.78,0,0,1-6.19,15.9A20.92,20.92,0,0,1,92.56,60a24.53,24.53,0,0,1-11.08-2.63,18,18,0,0,1-8-7.7A25.66,25.66,0,0,1,70.71,37.27Zm11.46.6q0,6.29,3,9.63a9.76,9.76,0,0,0,14.71,0q3-3.34,3-9.71,0-6.21-3-9.55a9.76,9.76,0,0,0-14.71,0Q82.18,31.58,82.18,37.87Z"/><g class="cls-1"><path d="M134.91,16.74v41q0,8.08-1.05,11.4a9.24,9.24,0,0,1-4.06,5.19,14.28,14.28,0,0,1-7.66,1.87,23.62,23.62,0,0,1-3.6-.3,39.74,39.74,0,0,1-4.16-.9l2-9.55q.8.16,1.49.26a9.17,9.17,0,0,0,1.29.1,4.93,4.93,0,0,0,2.81-.74,3.55,3.55,0,0,0,1.45-1.77,29,29,0,0,0,.36-6.21V16.74ZM123.72,11V.66h11.18V11Z"/></g><g class="cls-1"><path d="M143.78,37.15a22.88,22.88,0,0,1,2.75-10.79,18.85,18.85,0,0,1,7.78-8,23.09,23.09,0,0,1,11.24-2.75q9.59,0,15.72,6.23a21.52,21.52,0,0,1,6.13,15.74,21.77,21.77,0,0,1-6.19,15.9,20.92,20.92,0,0,1-15.58,6.31,24.53,24.53,0,0,1-11.08-2.63,18,18,0,0,1-8-7.7A25.67,25.67,0,0,1,143.78,37.15Zm11.46.6q0,6.29,3,9.63a9.76,9.76,0,0,0,14.71,0q3-3.34,3-9.71,0-6.21-3-9.55a9.76,9.76,0,0,0-14.71,0Q155.25,31.46,155.25,37.75Z"/></g><path d="M77.6,2.11h29.77V9.57H77.6Z"/></svg>