<svg id="Ebene_1" data-name="Ebene 1" xmlns="http://www.w3.org/2000/svg" viewBox="0 0 149.25 62.75">
<defs>
<style>
.cls-1{fill:#91A1AE;}</style>
</defs>
<title>
Zeichenfläche 11111111</title>
<path class="cls-1" d="M2.58,15h8v4.49q4.31-5.24,10.26-5.24a11.05,11.05,0,0,1,5.45,1.3,10,10,0,0,1,3.82,3.93,15.21,15.21,0,0,1,4.67-3.93,11.49,11.49,0,0,1,5.37-1.3,12,12,0,0,1,6.18,1.47,9,9,0,0,1,3.75,4.32A18.46,18.46,0,0,1,51,26.91v21H42.29V29.13q0-4.9-.9-6.32a4.13,4.13,0,0,0-3.72-1.86,5.93,5.93,0,0,0-3.44,1.11,6.18,6.18,0,0,0-2.34,3.27,23.51,23.51,0,0,0-.72,6.81v15.8H22.48v-18A25.32,25.32,0,0,0,22,23.67a4,4,0,0,0-1.44-2.08,4.56,4.56,0,0,0-2.65-.69A6.35,6.35,0,0,0,14.3,22,6,6,0,0,0,12,25.1a23.19,23.19,0,0,0-.7,6.79v16H2.58Z"/>
<path class="cls-1" d="M57,31a17.81,17.81,0,0,1,2.14-8.4,14.68,14.68,0,0,1,6.06-6.23A18,18,0,0,1,74,14.24a16.43,16.43,0,0,1,12.24,4.85A16.76,16.76,0,0,1,91,31.35a17,17,0,0,1-4.82,12.38,16.29,16.29,0,0,1-12.13,5,19.1,19.1,0,0,1-8.63-2,14,14,0,0,1-6.23-6A20,20,0,0,1,57,31Zm8.93.47q0,4.9,2.34,7.5a7.6,7.6,0,0,0,11.46,0q2.34-2.6,2.34-7.56T79.74,24a7.6,7.6,0,0,0-11.46,0Q66,26.58,66,31.48Z"/>
<path class="cls-1" d="M107,15V47a33.17,33.17,0,0,1-.82,8.88,7.2,7.2,0,0,1-3.16,4,11.12,11.12,0,0,1-6,1.46,18.4,18.4,0,0,1-2.8-.23A31,31,0,0,1,91,60.4L92.59,53q.62.12,1.16.2a7.14,7.14,0,0,0,1,.08,3.84,3.84,0,0,0,2.19-.58,2.76,2.76,0,0,0,1.13-1.38,22.59,22.59,0,0,0,.28-4.84V15Zm-8.71-4.47V2.5H107v8.05Z"/>
<path class="cls-1" d="M113.93,30.92a17.82,17.82,0,0,1,2.14-8.4,14.68,14.68,0,0,1,6.06-6.23,18,18,0,0,1,8.75-2.14A16.43,16.43,0,0,1,143.13,19a16.76,16.76,0,0,1,4.77,12.26,17,17,0,0,1-4.82,12.38,16.29,16.29,0,0,1-12.13,4.91,19.1,19.1,0,0,1-8.63-2,14,14,0,0,1-6.23-6A20,20,0,0,1,113.93,30.92Zm8.93.47q0,4.9,2.34,7.5a7.6,7.6,0,0,0,11.46,0q2.34-2.6,2.34-7.56t-2.34-7.44a7.6,7.6,0,0,0-11.46,0q-2.33,2.6-2.33,7.5Z"/>
<path class="cls-1" d="M62.39,3.63H85.57V9.44H62.39Z"/>
</svg>
