<svg id="Ebene_1" data-name="Ebene 1" xmlns="http://www.w3.org/2000/svg" viewBox="0 0 240 173.6"><defs><style>.cls-1{fill:#213c54;}</style></defs><title>Zeichenfläche 14 Kopiemdpi1</title><path class="cls-1" d="M195.29,9.32c-11.45,0-21.46,10-21.46,21.46q0,8.58,4.29,12.88l-21.46,37.2h-4.29q-8.58,0-12.88,4.29l-37.2-21.46V59.39c0-11.45-10-21.46-21.46-21.46s-21.46,10-21.46,21.46A21.86,21.86,0,0,0,65.09,73.7L40.76,123.78H37.9c-11.45,0-21.46,10-21.46,21.46s10,21.46,21.46,21.46,21.46-10,21.46-21.46a21.86,21.86,0,0,0-5.72-14.31L78,80.85h2.86q8.58,0,12.88-4.29L130.9,98v4.29c0,11.45,10,21.46,21.46,21.46s21.46-10,21.46-21.46q0-8.58-4.29-12.88L191,52.24h4.29c11.45,0,21.46-10,21.46-21.46S206.73,9.32,195.29,9.32Z"/></svg>